HIERARCHY
ROOT root
{
	OFFSET	0	13.1	24.9
	CHANNELS 6  Xposition Yposition Zposition Xrotation Yrotation Zrotation
	JOINT spine_1
	{
		OFFSET	0	9.99999	0
		CHANNELS 3  Xrotation Yrotation Zrotation
		JOINT spine_2
		{
			OFFSET	0	112	-10
			CHANNELS 3  Xrotation Yrotation Zrotation
			JOINT spine_3
			{
				OFFSET	0	206.5	19.3
				CHANNELS 3  Xrotation Yrotation Zrotation
				JOINT spine_4
				{
					OFFSET	0	110.4	14.6
					CHANNELS 3  Xrotation Yrotation Zrotation
					JOINT neck_1
					{
						OFFSET	0	71.8	-50.3
						CHANNELS 3  Xrotation Yrotation Zrotation
						JOINT neck_2
						{
							OFFSET	0	86.2	-25.8
							CHANNELS 3  Xrotation Yrotation Zrotation
							JOINT head_ee
							{
								OFFSET	0	179.8	-8.7
								CHANNELS 3  Xrotation Yrotation Zrotation
								End Site
								{
									OFFSET	1	0	0
								}
							}
						}
					}
					JOINT left_clavicle
					{
						OFFSET	-43.2	22.4	-70.8
						CHANNELS 3  Xrotation Yrotation Zrotation
						JOINT left_shoulder
						{
							OFFSET	-93.9	-5.79999	48.7
							CHANNELS 3  Xrotation Yrotation Zrotation
							JOINT left_elbow
							{
								OFFSET	-291.4	-30.8	15.2
								CHANNELS 3  Xrotation Yrotation Zrotation
								JOINT left_lowarm_twist
								{
									OFFSET	-110.7	-3.89999	13.6
									CHANNELS 3  Xrotation Yrotation Zrotation
									JOINT left_hand
									{
										OFFSET	-110.7	-3.89999	13.6
										CHANNELS 3  Xrotation Yrotation Zrotation
										JOINT left_ee
										{
											OFFSET	-80.8	-5.10001	12.1
											CHANNELS 3  Xrotation Yrotation Zrotation
											End Site
											{
												OFFSET	1	0	0
											}
										}
									}
								}
							}
						}
					}
					JOINT right_clavicle
					{
						OFFSET	43.2	22.4	-70.8
						CHANNELS 3  Xrotation Yrotation Zrotation
						JOINT right_shoulder
						{
							OFFSET	93.9	-5.79999	48.7
							CHANNELS 3  Xrotation Yrotation Zrotation
							JOINT right_elbow
							{
								OFFSET	291.4	-30.8	15.2
								CHANNELS 3  Xrotation Yrotation Zrotation
								JOINT right_lowarm_twist
								{
									OFFSET	110.7	-3.89999	13.6
									CHANNELS 3  Xrotation Yrotation Zrotation
									JOINT right_hand
									{
										OFFSET	110.7	-3.89999	13.6
										CHANNELS 3  Xrotation Yrotation Zrotation
										JOINT right_ee
										{
											OFFSET	80.8	-5.10001	12.1
											CHANNELS 3  Xrotation Yrotation Zrotation
											End Site
											{
												OFFSET	1	0	0
											}
										}
									}
								}
							}
						}
					}
				}
			}
		}
	}
	JOINT left_hip
	{
		OFFSET	-82.8	-127.5	0.300001
		CHANNELS 3  Xrotation Yrotation Zrotation
		JOINT left_knee
		{
			OFFSET	-28.2	-396.7	2.2
			CHANNELS 3  Xrotation Yrotation Zrotation
			JOINT left_ankle
			{
				OFFSET	-11.7	-411.3	35.4
				CHANNELS 3  Xrotation Yrotation Zrotation
				JOINT left_toes
				{
					OFFSET	0	-60	-88.6
					CHANNELS 3  Xrotation Yrotation Zrotation
					JOINT left_foot_ee
					{
						OFFSET	-22.5	-16.5	-42.2
						CHANNELS 3  Xrotation Yrotation Zrotation
						End Site
						{
							OFFSET	1	0	0
						}
					}
				}
			}
		}
	}
	JOINT right_hip
	{
		OFFSET	82.8	-127.5	0.300001
		CHANNELS 3  Xrotation Yrotation Zrotation
		JOINT right_knee
		{
			OFFSET	28.2	-396.7	2.2
			CHANNELS 3  Xrotation Yrotation Zrotation
			JOINT right_ankle
			{
				OFFSET	11.7	-411.3	35.4
				CHANNELS 3  Xrotation Yrotation Zrotation
				JOINT right_toes
				{
					OFFSET	0	-60	-88.6
					CHANNELS 3  Xrotation Yrotation Zrotation
					JOINT right_foot_ee
					{
						OFFSET	22.5	-16.5	-42.2
						CHANNELS 3  Xrotation Yrotation Zrotation
						End Site
						{
							OFFSET	1	0	0
						}
					}
				}
			}
		}
	}
}
MOTION
Frames: 13
Frame Time: 0.02
2881.82240539 711.502 -1890.30758613 6.24970536453 29.2313749995 1.37897090547 -2.34961 -0.408811 -1.91682 -2.34761 -0.286034 -1.93894 -2.3354 0.207485 -1.9489 -2.34068 -0.102851 -1.95721 -2.36519 6.17827 2.71296 -2.31752 9.04915 3.68029 -0.0 0.0 -0.0 8.51064 23.3838 14.6433 1.67141 -24.8728 61.2917 1.6431 -39.1406 0.584157 57.0046 -1.51462 -6.82483 -2.36519 11.9864 -10.0787 -0.0 0.0 -0.0 6.43772 18.9276 -11.6395 -23.4434 28.3011 -57.342 0.646316 17.7534 -0.100942 11.1858 -0.257837 1.40337 0.461955 -9.29406 -6.84096 0.0 0.0 0.0 -0.590404 -5.42252 -0.674315 -7.43389 0.233934 1.1161 38.9698 26.0271 -5.10147 -32.5973 0.0 0.0 -0.0 0.0 -0.0 23.8209 15.002 -7.79768 -61.0095 2.30997 -8.63571 2.89316 -28.7059 0.44847 -25.1369 0.0 0.0 0.0 0.0 0.0 
2879.10966118 711.502 -1886.63724122 6.29368417747 29.93625191 1.28989188565 -2.34961 -0.408811 -1.91682 -2.34761 -0.286034 -1.93894 -2.3354 0.207485 -1.9489 -2.34068 -0.102851 -1.95721 -2.36519 6.17827 2.71296 -2.31752 9.04915 3.68029 -0.0 0.0 -0.0 8.51064 23.3838 14.6433 1.67141 -24.8728 61.2917 1.6431 -39.1406 0.584157 57.0046 -1.51462 -6.82483 -2.36519 11.9864 -10.0787 -0.0 0.0 -0.0 6.43772 18.9276 -11.6395 -23.4434 28.3011 -57.342 0.646316 17.7534 -0.100942 11.1858 -0.257837 1.40337 0.461955 -9.29406 -6.84096 0.0 0.0 0.0 -0.590404 -5.42252 -0.674315 -7.43389 0.233934 1.1161 38.9698 26.0271 -5.10147 -32.5973 0.0 0.0 -0.0 0.0 -0.0 23.8209 15.002 -7.79768 -61.0095 2.30997 -8.63571 2.89316 -28.7059 0.44847 -25.1369 0.0 0.0 0.0 0.0 0.0 
2852.41906563 711.631 -1887.8367651 6.72075900976 30.9734363636 1.12208372769 -2.45938 -0.367355 -2.04977 -2.45707 -0.236207 -2.06898 -2.44568 0.29224 -2.06181 -2.45161 -0.0369787 -2.08208 -3.09097 6.95661 2.14967 -3.03911 10.9821 3.24718 -0.0 0.0 -0.0 9.49712 23.2593 16.1229 2.5152 -25.1911 59.4699 1.69935 -40.0875 0.62002 56.8165 -1.49884 -6.80661 -2.00214 11.2384 -8.11493 -0.0 0.0 -0.0 6.13495 18.5457 -11.013 -24.7354 29.2835 -57.5777 0.64878 17.8168 -0.101695 9.6725 -0.239062 1.21098 0.301837 -15.6628 -8.27832 0.0 0.0 0.0 -3.98927 -2.84966 -0.0378534 -2.97405 0.110976 0.442879 38.1649 26.0742 -5.0226 -33.3525 0.0 0.0 -0.0 0.0 -0.0 28.5685 11.8696 -7.6489 -59.3341 2.12851 -8.45167 5.43718 -28.7325 0.837621 -27.6757 0.0 0.0 0.0 0.0 0.0 
2828.87743263 709.839 -1892.50911457 6.40930417786 31.6961558295 1.32319132568 -2.30312 -0.349819 -2.23136 -2.30037 -0.207159 -2.24908 -2.28905 0.359647 -2.2298 -2.29599 0.00307228 -2.2586 -2.44946 6.82971 3.20614 -2.3904 9.85139 4.28846 -0.0 0.0 -0.0 8.69269 22.4371 15.0479 3.08373 -27.0075 59.6903 1.93544 -43.7892 0.77789 56.9275 -1.50815 -6.81736 -1.28339 8.0978 -4.94434 -0.0 0.0 -0.0 5.75518 17.0086 -10.3116 -25.1847 28.9567 -57.7696 0.604224 16.6633 -0.0884887 10.4092 -0.248837 1.30458 0.777441 -16.4094 -11.5271 0.0 0.0 0.0 -6.56978 -0.711868 0.931738 1.19773 -0.0511713 -0.176669 37.7265 25.9461 -4.97404 -34.1797 0.0 0.0 -0.0 0.0 -0.0 30.437 10.0889 -8.24026 -59.5371 2.15021 -8.47425 2.89117 -27.6641 0.445223 -29.4732 0.0 0.0 0.0 0.0 0.0 
2779.32273279 702.791 -1916.8079429 7.31695367352 32.5433110145 0.371867082474 -2.32157 -0.695783 -2.37966 -2.31858 -0.542994 -2.41908 -2.29147 0.0765838 -2.47806 -2.2999 -0.315619 -2.45908 -2.41632 6.45603 1.81286 -2.36595 10.2673 2.77936 -0.0 0.0 -0.0 8.38694 22.1048 14.6347 5.28999 -28.4983 60.483 2.18682 -47.2832 0.957381 57.3322 -1.54226 -6.85644 -0.426815 1.68139 -2.12983 -0.0 0.0 -0.0 4.97483 14.9499 -8.79473 -26.1575 29.1039 -58.5018 0.506246 14.0785 -0.0625114 8.93385 -0.228054 1.11727 0.986844 -19.3757 -13.8583 0.0 0.0 0.0 -12.142 0.399667 2.90692 4.16534 -0.193802 -0.609568 40.8003 25.2573 -5.25275 -34.7549 0.0 0.0 -0.0 0.0 -0.0 32.5995 8.24436 -9.53467 -58.6302 2.0539 -8.3728 2.02036 -29.248 0.314938 -30.9404 0.0 0.0 0.0 0.0 0.0 
2751.11949577 698.314 -1923.45340129 6.44848393018 32.8274793732 1.08829312909 -2.23864 -0.645871 -2.41424 -2.23553 -0.490985 -2.45041 -2.2104 0.131278 -2.49564 -2.21899 -0.264385 -2.48507 -2.02582 7.09385 1.45594 -1.95809 11.6658 2.46142 -0.0 0.0 -0.0 7.63454 22.0895 13.5127 6.45472 -30.658 60.1483 2.29016 -48.5982 1.03411 56.2642 -1.45285 -6.75281 0.0421767 2.03042 1.13336 -0.0 0.0 -0.0 4.14294 14.6278 -7.05036 -27.3726 28.5184 -58.8249 0.652066 17.9013 -0.102703 8.79021 -0.225773 1.09907 1.01624 -19.3575 -14.0341 0.0 0.0 0.0 -13.7453 1.16552 3.70788 4.89214 -0.232147 -0.714445 41.7646 25.3801 -5.34724 -35.3538 0.0 0.0 -0.0 0.0 -0.0 34.4567 7.33626 -9.907 -52.8964 1.48367 -7.69793 0.0614769 -29.4172 0.00963568 -32.6945 0.0 0.0 0.0 0.0 0.0 
2728.5941792 698.036 -1933.65860888 5.73149772728 32.0801768864 1.47708328458 -2.21452 -0.477712 -2.44127 -2.21126 -0.321448 -2.4667 -2.19351 0.298996 -2.46952 -2.20201 -0.0946467 -2.48574 -0.0170377 6.99255 -0.196829 0.0997216 12.6273 0.521242 -0.0 0.0 -0.0 7.57672 21.9986 13.4366 7.72415 -30.8656 60.4347 2.4454 -50.4524 1.15222 55.8126 -1.41563 -6.7085 0.457154 1.86034 3.8215 -0.0 0.0 -0.0 4.15714 14.2906 -7.10758 -27.9237 27.8665 -59.3476 0.570843 15.7899 -0.0791607 9.4592 -0.236007 1.18391 1.4354 -24.5881 -18.2179 0.0 0.0 0.0 -14.2699 1.01563 4.6294 4.55854 -0.214381 -0.666366 42.327 25.3973 -5.39959 -36.5933 0.0 0.0 -0.0 0.0 -0.0 34.3248 5.85994 -9.57235 -46.7892 0.954172 -6.92121 -1.57094 -29.3913 -0.247004 -33.9 0.0 0.0 0.0 0.0 0.0 
2708.14006507 692.384 -1946.20880772 5.36613983928 32.1339623206 1.05172381919 -2.14287 -0.359793 -2.54997 -2.13927 -0.196857 -2.56768 -2.12652 0.441874 -2.53704 -2.1355 0.0357878 -2.57496 1.37221 7.89781 -0.487227 1.55551 14.349 0.154353 -0.0 0.0 -0.0 6.62636 21.9153 12.0386 11.3487 -31.6181 63.7672 2.38078 -49.6976 1.10266 49.2574 -0.916162 -6.03415 0.451465 3.30781 4.37581 -0.0 0.0 -0.0 3.78774 13.7134 -6.37244 -28.1265 27.3379 -59.4338 0.531152 14.7416 -0.0687097 10.0233 -0.243867 1.25554 1.25595 -24.0626 -16.9839 0.0 0.0 0.0 -15.6002 2.96748 6.29526 4.35816 -0.203845 -0.637439 42.3191 23.8049 -5.34526 -34.1456 0.0 0.0 -0.0 0.0 -0.0 33.103 7.49466 -9.09812 -31.2358 0.00524761 -4.73467 -7.6595 -30.4512 -1.22574 -33.6901 0.0 0.0 0.0 0.0 0.0 
2691.60461825 692.52 -1954.24352418 4.78162977748 32.447004078 1.77435565893 -1.98824 -0.275272 -2.61452 -1.98445 -0.108405 -2.62673 -1.97569 0.53547 -2.57389 -1.98492 0.122399 -2.62611 1.60375 7.07895 -1.78163 1.80479 13.9619 -1.36032 -0.0 0.0 -0.0 7.67616 22.2832 13.553 10.7287 -32.7188 62.0524 2.43998 -50.39 1.14804 49.9188 -0.963 -6.1047 1.16402 2.8696 8.94927 -0.0 0.0 -0.0 4.09454 13.7722 -7.01632 -28.4228 26.9591 -59.2676 0.5504 15.2513 -0.0736902 11.2475 -0.258495 1.41122 2.1427 -29.6459 -23.7066 0.0 0.0 0.0 -16.323 0.193228 6.16964 4.35846 -0.203861 -0.637481 42.2881 25.4579 -5.39817 -33.8986 0.0 0.0 -0.0 0.0 -0.0 32.4414 7.54864 -9.29602 -23.5462 -0.236704 -3.58023 -11.8582 -30.7941 -1.91233 -36.9499 0.0 0.0 0.0 0.0 0.0 
2677.07987749 691.333 -1974.62384959 3.81641133244 32.1614981771 1.80581528603 -1.88759 -0.260253 -2.24563 -1.88479 -0.116868 -2.25763 -1.87742 0.433351 -2.21875 -1.88428 0.0775966 -2.25932 1.03277 8.31113 -0.8292 1.24135 15.3971 -0.149815 -0.0 0.0 -0.0 6.04662 21.2172 11.2313 11.3602 -34.6817 62.2876 2.53733 -51.486 1.22364 49.3738 -0.924344 -6.04661 1.45185 2.11966 10.5908 -0.0 0.0 -0.0 3.94681 13.2337 -6.74704 -27.4292 27.0275 -61.0199 0.547308 15.1696 -0.0728791 12.845 -0.272575 1.61477 2.51896 -30.1684 -26.0687 0.0 0.0 0.0 -16.047 -2.5839 6.66646 1.83386 -0.0798496 -0.270064 42.1674 25.5292 -5.38963 -34.2177 0.0 0.0 -0.0 0.0 -0.0 29.5171 7.53878 -9.33921 -8.12796 -0.248341 -1.22163 -18.7041 -28.2622 -2.98233 -39.4664 0.0 0.0 0.0 0.0 0.0 
2679.8031138 691.333 -1979.03869472 3.79544291027 31.6552739916 1.84548554915 -1.88759 -0.260253 -2.24563 -1.88479 -0.116868 -2.25763 -1.87742 0.433351 -2.21875 -1.88428 0.0775966 -2.25932 1.03277 8.31113 -0.8292 1.24135 15.3971 -0.149815 -0.0 0.0 -0.0 6.04662 21.2172 11.2313 11.3602 -34.6817 62.2876 2.53733 -51.486 1.22364 49.3738 -0.924344 -6.04661 1.45185 2.11966 10.5908 -0.0 0.0 -0.0 3.94681 13.2337 -6.74704 -27.4292 27.0275 -61.0199 0.547308 15.1696 -0.0728791 12.845 -0.272575 1.61477 2.51896 -30.1684 -26.0687 0.0 0.0 0.0 -16.047 -2.5839 6.66646 1.83386 -0.0798496 -0.270064 42.1674 25.5292 -5.38963 -34.2177 0.0 0.0 -0.0 0.0 -0.0 29.5171 7.53878 -9.33921 -8.12796 -0.248341 -1.22163 -18.7041 -28.2622 -2.98233 -39.4664 0.0 0.0 0.0 0.0 0.0 
2640.26074425 685.645 -2005.2109194 3.42130329182 33.687695746 0.468026672807 -2.07741 -0.29813 -2.20272 -2.07473 -0.157396 -2.21722 -2.06577 0.391406 -2.18808 -2.07245 0.0410158 -2.22242 1.78224 10.5743 0.827174 2.0647 17.9317 1.76282 -0.0 0.0 -0.0 5.73227 23.5277 10.639 12.902 -36.7287 64.1921 2.61768 -52.3526 1.28688 46.8959 -0.755656 -5.778 1.57685 2.26219 11.4932 -0.0 0.0 -0.0 4.37762 13.0558 -7.67002 -26.6122 25.221 -61.5329 0.461838 12.8866 -0.0521573 13.4799 -0.276593 1.69577 2.72164 -29.9452 -27.2705 0.0 0.0 0.0 -16.3128 -4.66449 8.53561 -2.7697 0.104089 0.412273 41.2467 25.5197 -5.30379 -34.118 0.0 0.0 -0.0 0.0 -0.0 25.9065 8.24807 -7.94525 9.1576 0.483805 1.31964 -23.2613 -26.3084 -3.67185 -40.0053 0.0 0.0 0.0 0.0 0.0 
2621.2590279 680.863 -2024.25610296 3.69047566425 34.7313027569 0.0455397429672 -2.38782 -0.309544 -2.03808 -2.38553 -0.179256 -2.05364 -2.37641 0.341071 -2.03305 -2.38218 0.01578 -2.06139 1.54811 11.2572 1.72154 1.83282 18.429 2.82555 -0.0 0.0 -0.0 5.75599 23.7859 10.6569 13.4918 -37.3419 64.8675 2.66705 -52.8687 1.32611 46.0479 -0.700624 -5.68445 1.5547 2.56479 11.4619 -0.0 0.0 -0.0 4.65497 12.8811 -8.26859 -26.3275 24.6827 -61.9738 0.417639 11.689 -0.0427501 13.686 -0.277705 1.72207 2.76172 -29.9 -27.5107 0.0 0.0 0.0 -17.551 -5.61812 8.97616 -4.74188 0.165987 0.7086 41.1675 25.3161 -5.28935 -34.0242 0.0 0.0 -0.0 0.0 -0.0 25.1215 8.23831 -8.19642 9.65626 0.516159 1.38914 -23.767 -25.6276 -3.73797 -39.8707 0.0 0.0 0.0 0.0 0.0 
